<svg width="104" height="43" viewBox="0 0 104 43" fill="none" xmlns="http://www.w3.org/2000/svg">
<path d="M25.2481 9.46381C24.189 9.04038 23.0452 8.82866 21.9014 8.82866C21.2236 8.82866 20.5458 8.91335 19.868 9.04038L17.1356 13.7405C18.2582 13.1265 19.5079 12.8301 20.8 12.8513C21.5837 12.8513 22.3462 12.9572 23.0876 13.1689L25.2481 9.46381ZM8.83258 22.1034C8.83258 28.8784 14.5939 34.1502 21.3083 34.1502C28.3405 34.1502 34.0171 28.4761 34.0171 21.5741C34.0171 17.5303 32.0684 13.9734 29.1666 11.6022L27.0485 15.2649C28.9124 16.8528 29.9927 19.1817 29.9927 21.6376C29.9927 26.3378 26.0953 30.191 21.3083 30.191C16.5214 30.191 12.6452 26.3166 12.6452 21.5318C12.6452 21.5318 12.6452 21.5318 12.6452 21.5106C12.6452 20.9389 12.6876 20.3673 12.7935 19.8168L8.83258 22.1034ZM48.0391 16.5352C47.0012 16.514 46.0057 16.874 45.222 17.5303L45.0102 16.7681H43.1039V26.4436H45.5397V21.193C45.5397 20.0709 46.2811 18.9488 47.7214 18.9488C48.844 18.9488 49.5006 19.7322 49.5006 21.066V26.4648H51.9364V20.8543C51.9364 18.229 50.4114 16.5352 48.0391 16.5352ZM76.3161 16.5352C73.5837 16.5352 71.4444 18.7582 71.4444 21.5953C71.4444 24.4323 73.5837 26.6553 76.3161 26.6553C79.0485 26.6553 81.1878 24.4323 81.1878 21.5953C81.1878 18.7582 79.0485 16.5352 76.3161 16.5352ZM78.7307 21.5953C78.7307 23.1408 77.714 24.2629 76.3373 24.2629C74.9605 24.2629 73.9226 23.1408 73.9226 21.5953C73.9226 20.0497 74.9393 18.9276 76.3161 18.9276C77.6929 18.9276 78.7307 20.0497 78.7307 21.5953ZM61.9128 16.5352C59.1804 16.5352 57.0411 18.7582 57.0411 21.5953C57.0411 24.4323 59.1804 26.6553 61.9128 26.6553C64.6452 26.6553 66.7845 24.4323 66.7845 21.5953C66.7845 18.7582 64.6452 16.5352 61.9128 16.5352ZM64.3063 21.5953C64.3063 23.1408 63.2896 24.2629 61.9128 24.2629C60.536 24.2629 59.5193 23.1408 59.5193 21.5953C59.5193 20.0497 60.536 18.9276 61.9128 18.9276C63.2896 18.9276 64.3063 20.0497 64.3063 21.5953ZM91.27 16.5352C90.2322 16.514 89.2366 16.874 88.4529 17.5303L88.2411 16.7681H86.3348V26.4436H88.7495V21.193C88.7495 20.0709 89.4908 18.9488 90.9311 18.9488C92.0538 18.9488 92.7316 19.7322 92.7316 21.066V26.4648H95.1674V20.8543C95.1462 18.229 93.6212 16.5352 91.27 16.5352Z" fill="black"/>
</svg>
